Coordinates
version=1
nRows=19
nColumns=33
inDegrees=yes

Units are S.I. units (second, meters, Newtons, ...)
Angles are in degrees.

endheader
time	ground_thorax_rot_x	ground_thorax_rot_y	ground_thorax_rot_z	ground_thorax_tx	ground_thorax_ty	ground_thorax_tz	clav_prot_r	clav_elev_r	scapula_abduction_r	scapula_elevation_r	scapula_upward_rot_r	scapula_winging_r	shoulder_elv_r	plane_of_elev_r	axial_rot_r	elbow_flexion_r	pro_sup_r	wrist_flex_r	wrist_dev_r	clav_prot_l	clav_elev_l	scapula_abduction_l	scapula_elevation_l	scapula_upward_rot_l	scapula_winging_l	shoulder_elv_l	plane_of_elev_l	axial_rot_l	elbow_flexion_l	pro_sup_l	wrist_flex_l	wrist_dev_l
     10.20000000	    -32.26684966	    -31.78062666	     46.47416315	     40.93140321	    787.14929955	    -64.48670349	     27.74211386	    -45.00000000	     37.22082482	    -45.00000000	    -45.00000000	  -2618.07812070	  -4606.60280024	     14.21325538	   -129.74085743	   1796.22993741	   -188.51085006	     21.24269090	     16.77695757	      2.40435834	     30.15108875	    -28.06727365	    -45.00000000	    -45.00000000	  -5679.34063350	  -2085.43316681	     26.34539049	     45.99424497	     -8.54463299	   -305.78591851	     10.60399380	    -15.93106279
     10.21000000	    -32.45520806	    -31.56102262	     46.18459023	     38.12593452	    787.17682682	    -64.48962666	     27.73652232	    -45.00000000	     37.18257950	    -45.00000000	    -45.00000000	  -2618.24695633	  -4606.51940900	     14.23148888	   -129.75248322	   1796.20068796	   -188.85886009	     21.21067399	     16.85927644	      2.38298747	     30.20446147	    -28.08590408	    -45.00000000	    -45.00000000	  -5679.24273407	  -2085.46267012	     26.35296251	     45.77175325	     -8.56526248	   -305.56357195	     10.60212846	    -16.05912361
     10.22000000	    -32.67654799	    -31.35264853	     45.86367773	     35.28548539	    787.24679631	    -64.50581800	     27.70056398	    -45.00000000	     37.12821520	    -45.00000000	    -45.00000000	  -2618.40180870	  -4606.44478831	     14.27702856	   -129.76909144	   1796.17196748	   -189.19400866	     21.18279321	     16.94117745	      2.34901845	     30.21789914	    -28.10692288	    -45.00000000	    -45.00000000	  -5679.11127995	  -2085.45174409	     26.35069568	     45.60833429	     -8.55762059	   -305.34085481	     10.57655307	    -16.18921002
     10.23000000	    -32.86187707	    -31.13669915	     45.56539314	     32.43214040	    787.35613934	    -64.52164087	     27.69750907	    -45.00000000	     37.09431796	    -45.00000000	    -45.00000000	  -2618.57326203	  -4606.36124490	     14.30473925	   -129.77535257	   1796.13056762	   -189.52266272	     21.16276421	     17.01324013	      2.31511713	     30.25485190	    -28.11995303	    -45.00000000	    -45.00000000	  -5679.01639324	  -2085.46789451	     26.35472541	     45.44671243	     -8.57398208	   -305.11293309	     10.55732869	    -16.32520791
     10.24000000	    -33.05277616	    -30.93650987	     45.26816078	     29.57223021	    787.50637198	    -64.53516057	     27.68158661	    -45.00000000	     37.05109442	    -45.00000000	    -45.00000000	  -2618.74368054	  -4606.27824928	     14.33957202	   -129.76646035	   1796.08215160	   -189.84096209	     21.14923454	     17.08463192	      2.28288933	     30.30069954	    -28.14007166	    -45.00000000	    -45.00000000	  -5678.89023769	  -2085.47356730	     26.35678483	     45.30293359	     -8.57497860	   -304.89733590	     10.52915726	    -16.46193403
     10.25000000	    -33.23798597	    -30.74572222	     44.98442346	     26.72523501	    787.69457547	    -64.53851910	     27.67169747	    -45.00000000	     37.01820225	    -45.00000000	    -45.00000000	  -2618.92219964	  -4606.20051697	     14.36887964	   -129.74456052	   1796.02015914	   -190.15120286	     21.14478148	     17.15176180	      2.23652364	     30.33356682	    -28.15080041	    -45.00000000	    -45.00000000	  -5678.77677128	  -2085.46283425	     26.34343160	     45.20284633	     -8.59054615	   -304.70634542	     10.50148687	    -16.58577247
     10.26000000	    -33.35476474	    -30.59870021	     44.78744919	     23.88954660	    787.92325978	    -64.53622661	     27.72548972	    -45.00000000	     37.10200130	    -45.00000000	    -45.00000000	  -2619.17576575	  -4606.11379273	     14.38003294	   -129.67000259	   1795.89353976	   -190.48078623	     21.15453975	     17.21932245	      2.14256090	     30.41438746	    -28.15695228	    -45.00000000	    -45.00000000	  -5678.67065794	  -2085.42519100	     26.27114871	     45.18052428	     -8.64773429	   -304.54655417	     10.50640130	    -16.71871992
     10.27000000	    -33.54631123	    -30.39566521	     44.49281506	     21.06208331	    788.19516255	    -64.53372403	     27.69201218	    -45.00000000	     37.06424161	    -45.00000000	    -45.00000000	  -2619.34219567	  -4606.01268750	     14.39830230	   -129.65068987	   1795.83428607	   -190.81116952	     21.15433944	     17.27704236	      2.11814074	     30.45804398	    -28.18223795	    -45.00000000	    -45.00000000	  -5678.56824091	  -2085.40262946	     26.26704653	     45.08427634	     -8.65842190	   -304.43941603	     10.49199942	    -16.81874992
     10.28000000	    -33.75482503	    -30.17853481	     44.16103457	     18.22778813	    788.51725350	    -64.54445888	     27.64772182	    -45.00000000	     37.00608365	    -45.00000000	    -45.00000000	  -2619.47439062	  -4605.91989479	     14.42840897	   -129.67158281	   1795.79754196	   -191.13912908	     21.14714110	     17.33401921	      2.10125544	     30.47656475	    -28.21155482	    -45.00000000	    -45.00000000	  -5678.46158387	  -2085.37281759	     26.27890329	     45.00497403	     -8.67364289	   -304.38675802	     10.48612342	    -16.90040003
     10.29000000	    -33.96724300	    -29.97112732	     43.79417771	     15.38538698	    788.89312810	    -64.57187510	     27.60503116	    -45.00000000	     36.90213060	    -45.00000000	    -45.00000000	  -2619.60414126	  -4605.84339079	     14.45329081	   -129.67331627	   1795.76160463	   -191.46146795	     21.13810047	     17.38676476	      2.09216422	     30.48793720	    -28.23229194	    -45.00000000	    -45.00000000	  -5678.36375283	  -2085.39905757	     26.29822155	     44.93252999	     -8.71197298	   -304.38554352	     10.49111468	    -16.96176764
     10.30000000	    -34.12667970	    -29.75945114	     43.53387245	     12.54953961	    789.32345009	    -64.61921308	     27.62292697	    -45.00000000	     36.95345541	    -45.00000000	    -45.00000000	  -2619.80313623	  -4605.76124423	     14.47134197	   -129.71017194	   1795.63359817	   -191.81796785	     21.13405016	     17.45024127	      2.03265577	     30.55520227	    -28.28866171	    -45.00000000	    -45.00000000	  -5678.23853454	  -2085.34850548	     26.24366259	     44.96847325	     -8.76543838	   -304.45898998	     10.54404965	    -17.05199402
     10.31000000	    -34.28656698	    -29.56336131	     43.24815206	      9.71401725	    789.81062898	    -64.68992552	     27.62467133	    -45.00000000	     36.95926994	    -45.00000000	    -45.00000000	  -2619.98895394	  -4605.65933891	     14.49802782	   -129.67348169	   1795.55928814	   -192.18795777	     21.11068983	     17.50104925	      1.98409294	     30.58837517	    -28.30831817	    -45.00000000	    -45.00000000	  -5678.12098489	  -2085.31071395	     26.23618113	     44.96014691	     -8.80868963	   -304.60440639	     10.59086232	    -17.11187159
     10.32000000	    -34.48687511	    -29.32065503	     42.90061835	      6.88388869	    790.35405544	    -64.78744834	     27.57145927	    -45.00000000	     36.90326848	    -45.00000000	    -45.00000000	  -2620.10585919	  -4605.55957878	     14.52342530	   -129.73405308	   1795.50841976	   -192.56130607	     21.07297560	     17.55186234	      1.98702892	     30.62263296	    -28.36868680	    -45.00000000	    -45.00000000	  -5678.00836731	  -2085.28391075	     26.24556112	     44.92190237	     -8.84549996	   -304.81349152	     10.64021107	    -17.15224518
     10.33000000	    -34.66285034	    -29.09992286	     42.58461742	      4.05776715	    790.95535696	    -64.91355675	     27.55130531	    -45.00000000	     36.88230166	    -45.00000000	    -45.00000000	  -2620.25720188	  -4605.46146619	     14.55263569	   -129.77401993	   1795.43545576	   -192.93734667	     21.03024367	     17.60487193	      1.96458068	     30.66144989	    -28.41858223	    -45.00000000	    -45.00000000	  -5677.88391195	  -2085.24027779	     26.24377361	     44.92900512	     -8.89441781	   -305.09762337	     10.70565204	    -17.18764662
     10.34000000	    -34.87336810	    -28.85015567	     42.21737174	      1.23706288	    791.61504040	    -65.06902619	     27.49848423	    -45.00000000	     36.81908893	    -45.00000000	    -45.00000000	  -2620.37633513	  -4605.36380201	     14.59317213	   -129.87698988	   1795.37284999	   -193.30855781	     20.97956811	     17.65679237	      1.96410349	     30.67746166	    -28.49778335	    -45.00000000	    -45.00000000	  -5677.75757507	  -2085.19075686	     26.26322409	     44.91190706	     -8.95352272	   -305.44556857	     10.77693376	    -17.20074558
     10.35000000	    -35.02954019	    -28.64951414	     41.91970120	     -1.57983535	    792.33547310	    -65.25279596	     27.49087478	    -45.00000000	     36.80442915	    -45.00000000	    -45.00000000	  -2620.53934240	  -4605.27149152	     14.61857280	   -129.94896974	   1795.29064957	   -193.68570622	     20.92527721	     17.71136387	      1.94821210	     30.73683580	    -28.54211424	    -45.00000000	    -45.00000000	  -5677.62495976	  -2085.14339326	     26.25249947	     44.93994187	     -9.00150230	   -305.88516327	     10.87087437	    -17.22420015
     10.36000000	    -35.19060918	    -28.43457652	     41.59183264	     -4.38982072	    793.11724479	    -65.46311203	     27.46503595	    -45.00000000	     36.80903294	    -45.00000000	    -45.00000000	  -2620.68589252	  -4605.16919179	     14.67020493	   -130.04103262	   1795.22571250	   -194.06453493	     20.85931885	     17.76945091	      1.92705372	     30.79813226	    -28.60559553	    -45.00000000	    -45.00000000	  -5677.48783577	  -2085.07506006	     26.24523412	     45.02495602	     -9.04874751	   -306.40629060	     10.97733281	    -17.23699246
     10.37000000	    -35.37297685	    -28.19689632	     41.24624181	     -7.19383028	    793.96257965	    -65.69731779	     27.42406576	    -45.00000000	     36.76836947	    -45.00000000	    -45.00000000	  -2620.81927060	  -4605.07449284	     14.71025466	   -130.20283813	   1795.15537255	   -194.44594170	     20.79596867	     17.82195905	      1.93283583	     30.83013998	    -28.69450963	    -45.00000000	    -45.00000000	  -5677.34998532	  -2085.01617656	     26.26125336	     45.03975984	     -9.10401038	   -306.99137701	     11.09786093	    -17.23484438
     10.38000000	    -35.53897353	    -28.00880296	     40.92552256	     -9.99257824	    794.87148084	    -65.95309442	     27.40534041	    -45.00000000	     36.77365261	    -45.00000000	    -45.00000000	  -2620.98889826	  -4604.97098564	     14.77928500	   -130.31454093	   1795.06984189	   -194.81776476	     20.73224614	     17.88364968	      1.90415893	     30.88694759	    -28.76973444	    -45.00000000	    -45.00000000	  -5677.18156039	  -2084.93218729	     26.25895813	     45.13698017	     -9.14783039	   -307.63777742	     11.23010329	    -17.23383268
